<?xml version="1.0" encoding="utf-8"?>
<!-- Generator: Adobe Illustrator 23.0.3, SVG Export Plug-In . SVG Version: 6.00 Build 0)  -->
<svg version="1.1" id="Layer_1" xmlns="http://www.w3.org/2000/svg" xmlns:xlink="http://www.w3.org/1999/xlink" x="0px" y="0px"
	 viewBox="0 0 1000 1000" style="enable-background:new 0 0 1000 1000;" xml:space="preserve">
<style type="text/css">
	.st0{fill:#FFFFFF;}
	.st1{fill-rule:evenodd;clip-rule:evenodd;fill:#009FE3;}
</style>
<g>
	<path class="st0" d="M500,900c-220.56,0-400-179.44-400-400c0-220.56,179.44-400,400-400c220.56,0,400,179.44,400,400
		C900,720.56,720.56,900,500,900z"/>
</g>
<g>
	<path class="st1" d="M437.27,501.89v231.83c0,3.33,2.7,6.04,6.04,6.04h86.09c3.33,0,6.04-2.7,6.04-6.04V498.11h62.41
		c3.14,0,5.75-2.4,6.02-5.53l6-70.99c0.3-3.52-2.48-6.55-6.02-6.55h-68.42v-50.37c0-11.8,9.57-21.37,21.37-21.37h48.1
		c3.34,0,6.04-2.7,6.04-6.04v-70.99c0-3.33-2.7-6.04-6.04-6.04h-81.28c-47.7,0-86.36,38.67-86.36,86.37v68.44h-43.05
		c-3.34,0-6.04,2.7-6.04,6.04v70.99c0,3.33,2.7,6.04,6.04,6.04h43.05V501.89z"/>
</g>
</svg>
