<?xml version="1.0" encoding="utf-8"?>
<!-- Generator: Adobe Illustrator 23.0.3, SVG Export Plug-In . SVG Version: 6.00 Build 0)  -->
<svg version="1.1" id="Layer_1" xmlns="http://www.w3.org/2000/svg" xmlns:xlink="http://www.w3.org/1999/xlink" x="0px" y="0px"
	 viewBox="0 0 1000 1000" style="enable-background:new 0 0 1000 1000;" xml:space="preserve">
<style type="text/css">
	.st0{fill:#009FE3;}
	.st1{fill:#FFFFFF;}
</style>
<g>
	<g>
		<path class="st0" d="M500,900c-220.56,0-400-179.44-400-400c0-220.56,179.44-400,400-400c220.56,0,400,179.44,400,400
			C900,720.56,720.56,900,500,900z"/>
	</g>
	<path class="st1" d="M631.58,338.77c-16.24,0-29.41,13.16-29.41,29.41c0,16.24,13.16,29.4,29.41,29.4s29.41-13.16,29.41-29.4
		C660.99,351.93,647.82,338.77,631.58,338.77z"/>
	<path class="st1" d="M500.85,376.48c-68.11,0-123.53,55.41-123.53,123.52c0,68.11,55.42,123.52,123.53,123.52
		S624.37,568.11,624.37,500C624.37,431.89,568.96,376.48,500.85,376.48z M500.85,579.13c-43.63,0-79.13-35.5-79.13-79.13
		c0-43.63,35.5-79.13,79.13-79.13c43.63,0,79.12,35.49,79.12,79.13C579.97,543.63,544.48,579.13,500.85,579.13z"/>
	<path class="st1" d="M599.43,246.68H400.57c-83.21,0-150.67,67.45-150.67,150.66v198.87c0,83.21,67.46,150.66,150.67,150.66h198.85
		c83.21,0,150.67-67.45,150.67-150.66V397.34C750.09,314.13,682.64,246.68,599.43,246.68z M702.91,596.21
		c0,57.15-46.33,103.47-103.48,103.47H400.57c-57.15,0-103.48-46.33-103.48-103.47V397.34c0-57.15,46.33-103.47,103.48-103.47
		h198.85c57.15,0,103.48,46.33,103.48,103.47V596.21z"/>
</g>
</svg>
