<?xml version="1.0" encoding="utf-8"?>
<!-- Generator: Adobe Illustrator 23.0.3, SVG Export Plug-In . SVG Version: 6.00 Build 0)  -->
<svg version="1.1" id="Layer_1" xmlns="http://www.w3.org/2000/svg" xmlns:xlink="http://www.w3.org/1999/xlink" x="0px" y="0px"
	 viewBox="0 0 1000 1000" style="enable-background:new 0 0 1000 1000;" xml:space="preserve">
<style type="text/css">
	.st0{fill:url(#SVGID_1_);}
</style>
<radialGradient id="SVGID_1_" cx="500" cy="502.4522" r="397.9695" gradientTransform="matrix(1 0 0 1.0103 0 -7.619)" gradientUnits="userSpaceOnUse">
	<stop  offset="0" style="stop-color:#009FE3"/>
	<stop  offset="1" style="stop-color:#1D71B8"/>
</radialGradient>
<polygon class="st0" points="500,136.3 556.93,100 601.42,151.03 666.17,132.41 694.63,194.03 761.94,194.59 772.07,261.83 
	836.5,281.52 827.47,348.91 883.8,386.15 856.34,448.24 900,500 856.34,551.76 883.8,613.85 827.47,651.09 836.5,718.48 
	772.07,738.17 761.94,805.41 694.63,805.97 666.17,867.59 601.42,848.97 556.93,900 500,863.7 443.07,900 398.58,848.97 
	333.83,867.59 305.37,805.97 238.06,805.41 227.93,738.17 163.5,718.48 172.53,651.09 116.2,613.85 143.66,551.76 100,500 
	143.66,448.24 116.2,386.15 172.53,348.91 163.5,281.52 227.93,261.83 238.06,194.59 305.37,194.03 333.83,132.41 398.58,151.03 
	443.07,100 "/>
</svg>
