<?xml version="1.0" encoding="utf-8"?>
<!-- Generator: Adobe Illustrator 23.0.3, SVG Export Plug-In . SVG Version: 6.00 Build 0)  -->
<svg version="1.1" id="Layer_1" xmlns="http://www.w3.org/2000/svg" xmlns:xlink="http://www.w3.org/1999/xlink" x="0px" y="0px"
	 viewBox="0 0 1000 1000" style="enable-background:new 0 0 1000 1000;" xml:space="preserve">
<style type="text/css">
	.st0{fill:#009FE3;}
	.st1{fill:#FFFFFF;}
</style>
<g>
	<g>
		<g>
			<path class="st0" d="M500,900c-220.56,0-400-179.44-400-400s179.44-400,400-400c220.56,0,400,179.44,400,400S720.56,900,500,900z
				"/>
		</g>
	</g>
	<g>
		<path class="st1" d="M634.49,729.41c-4.01,0-7.99-1.19-11.4-3.5l-128.98-87.49l-69.18,49.78c-5.43,3.9-12.42,4.88-18.72,2.63
			c-6.29-2.26-11.07-7.47-12.78-13.93L358.7,545.27l-124.11-47.46c-7.81-2.99-13-10.46-13.05-18.83
			c-0.06-8.37,5.02-15.91,12.8-19.01L706.25,272.2c2.14-0.91,4.41-1.43,6.69-1.58c0.82-0.05,1.64-0.05,2.45,0
			c4.73,0.28,9.38,2.21,13.01,5.77c0.38,0.37,0.73,0.74,1.07,1.14c3.01,3.43,4.66,7.62,4.97,11.88c0.08,1.07,0.07,2.16-0.02,3.24
			c-0.07,0.77-0.18,1.55-0.33,2.31l-79.66,417.95c-1.28,6.71-5.85,12.33-12.16,14.95C639.76,728.9,637.12,729.41,634.49,729.41z
			 M505.43,597.04l114.89,77.93l61.98-325.21L458.45,565.16l46.45,31.51C505.08,596.79,505.26,596.91,505.43,597.04z M409.79,579.71
			l15.38,58.29l33.14-23.85l-43.4-29.44C412.9,583.34,411.18,581.64,409.79,579.71z M297.71,478.46l85.22,32.58
			c6.1,2.33,10.71,7.47,12.38,13.79l10.81,40.96c0.5-4.72,2.64-9.17,6.12-12.52l213.31-205.25L297.71,478.46z"/>
	</g>
</g>
</svg>
